<?xml version="1.0" encoding="UTF-8"?>
<svg xmlns="http://www.w3.org/2000/svg" viewBox="0 0 32 32">
  <defs>
    <style>
      .bg { fill: #d4710a; }
      .accent { fill: #f2c98a; }
      .track { stroke: #f2c98a; stroke-width: 2; stroke-linecap: round; fill: none; }
    </style>
  </defs>
  <path class="bg" d="M26.5,5V27c0,1.66-1.34,3-3,3H8.5c-1.66,0-3-1.34-3-3V10.74c0-.06,0-.12,.01-.17,.04-.73,.35-1.43,.87-1.95L12.12,2.88c.56-.56,1.33-.88,2.12-.88h9.26c1.66,0,3,1.34,3,3Z"/>
  <path class="accent" d="M14.24,2V7.57c0,1.65-1.35,3-3,3H5.51c.04-.73,.35-1.43,.87-1.95L12.12,2.88c.56-.56,1.33-.88,2.12-.88Z"/>
  <line class="track" x1="10" y1="15" x2="22" y2="15"/>
  <circle class="accent" cx="15" cy="15" r="2"/>
  <line class="track" x1="10" y1="20" x2="22" y2="20"/>
  <circle class="accent" cx="19" cy="20" r="2"/>
  <line class="track" x1="10" y1="25" x2="20" y2="25"/>
  <circle class="accent" cx="12" cy="25" r="2"/>
</svg>
